<?xml version="1.0"?>
<svg xmlns:rdf="http://www.w3.org/1999/02/22-rdf-syntax-ns#" xmlns="http://www.w3.org/2000/svg" xmlns:sodipodi="http://inkscape.sourceforge.net/DTD/sodipodi-0.dtd" xmlns:cc="http://web.resource.org/cc/" xmlns:xlink="http://www.w3.org/1999/xlink" xmlns:dc="http://purl.org/dc/elements/1.1/" xmlns:svg="http://www.w3.org/2000/svg" id="svg2" viewBox="0 0 354.33 350" sodipodi:version="0.32" version="1.0" y="0" x="0" sodipodi:docname="oldjoystick.svg" sodipodi:docbase="/home/gatuus/Documents/trabajo/mose/clipart/joystick">
  <defs id="defs3">
    <linearGradient id="linearGradient2202">
      <stop id="stop2204" stop-opacity=".38144" offset="0"/>
      <stop id="stop2206" stop-color="#fff" stop-opacity=".37113" offset="1"/>
    </linearGradient>
    <linearGradient id="linearGradient2079">
      <stop id="stop2081" stop-color="#000002" offset="0"/>
      <stop id="stop2083" stop-color="#fff8fd" offset="1"/>
    </linearGradient>
    <linearGradient id="linearGradient2452" y2="514.92" xlink:href="#linearGradient2079" gradientUnits="userSpaceOnUse" y1="446.39" gradientTransform="scale(1.4108 .70879)" x2="293.18" x1="156.73"/>
    <radialGradient id="radialGradient2454" xlink:href="#linearGradient2079" gradientUnits="userSpaceOnUse" cy="242.35" cx="571.39" gradientTransform="scale(.91695 1.0906)" r="191.68"/>
    <linearGradient id="linearGradient2456" y2="527.89" xlink:href="#linearGradient2202" gradientUnits="userSpaceOnUse" y1="513.99" gradientTransform="scale(1.8934 .52815)" x2="213.18" x1="184.58"/>
    <radialGradient id="radialGradient2458" fx="1078" xlink:href="#linearGradient2079" gradientUnits="userSpaceOnUse" cy="139.53" cx="1082.5" gradientTransform="scale(.38138 2.622)" r="1.4982"/>
    <linearGradient id="linearGradient2460" y2="601.57" xlink:href="#linearGradient2202" gradientUnits="userSpaceOnUse" y1="490.37" gradientTransform="scale(1.8934 .52815)" x2="175.86" x1="219.41"/>
    <linearGradient id="linearGradient2462" y2="1669.8" xlink:href="#linearGradient2079" gradientUnits="userSpaceOnUse" y1="1666.2" gradientTransform="scale(3.4435 .29040)" x2="57.043" x1="90.803"/>
    <linearGradient id="linearGradient2464" y2="1214.1" xlink:href="#linearGradient2079" gradientUnits="userSpaceOnUse" y1="1210.2" gradientTransform="scale(4.2905 .23307)" x2="90.885" x1="61.895"/>
    <radialGradient id="radialGradient2466" fx="194.64" fy="504.56" xlink:href="#linearGradient2202" spreadMethod="reflect" gradientUnits="userSpaceOnUse" cy="508.48" cx="196.3" gradientTransform="scale(1.8963 .52735)" r="57.687"/>
    <radialGradient id="radialGradient2468" gradientUnits="userSpaceOnUse" cy="450.87" cx="264.28" gradientTransform="scale(1.7803 .56171)" r="7.0169">
      <stop id="stop2265" stop-color="#ff3313" offset="0"/>
      <stop id="stop2267" stop-color="#fd0024" offset="1"/>
    </radialGradient>
    <linearGradient id="linearGradient2470" y2="458.7" gradientUnits="userSpaceOnUse" y1="446.01" gradientTransform="scale(1.7803 .56171)" x2="264.28" x1="262.9">
      <stop id="stop2235" stop-color="#ff3313" offset="0"/>
      <stop id="stop2237" stop-color="#030" offset="1"/>
    </linearGradient>
    <linearGradient id="linearGradient2472" y2="91.989" xlink:href="#linearGradient2079" spreadMethod="reflect" gradientUnits="userSpaceOnUse" y1="92.279" gradientTransform="matrix(.58864 .0099966 -.026981 2.0442 -33.745 -13.485)" x2="764.79" x1="705.56"/>
  </defs>
  <sodipodi:namedview id="base" bordercolor="#666666" borderopacity="1.0" pagecolor="#ffffff"/>
  <g id="layer1">
    <g id="g2316" transform="translate(-180.71 -62.143)">
      <path id="rect1293" d="m398.15 402.46l-206.43-27.54c-4.39-0.01-7.92-8.06-7.91-18.06l0.07-44.71c0.02-10 1.07-18.76 5.46-18.76l208.57 23.86c4.39 0.01 2.57 8.42 2.55 18.42l-0.07 48.75c-0.01 10 2.15 18.05-2.24 18.04z" sodipodi:nodetypes="ccccccccc" fill="url(#linearGradient2452)"/>
      <path id="path1298" d="m523.65 329.19l-121.1 72.69c-4.4-0.06-3.27-7.36-3.12-17.62l0.33-50c0.15-10.26-2.3-17.39 2.1-17.33l126.57-73.7c4.4 0.07 4.25 7.3 4.11 17.56l-0.7 50c-0.14 10.26-1.65 14.18-8.19 18.4z" sodipodi:nodetypes="ccccccccc" fill="url(#radialGradient2454)"/>
      <path id="rect1291" d="m188.24 292.79l120.51-65.14c3.7-2.22 18.72-6.09 28.65-4.91l179.32 16.34c9.93 1.17 14.94 3.9 11.24 6.11l-122.53 71.2c-3.71 2.22-6.48 1.77-16.41 0.6l-189.54-18.09c-9.93-1.18-14.95-3.9-11.24-6.11z" sodipodi:nodetypes="ccccccccc" fill="url(#linearGradient2456)" fill-rule="evenodd"/>
      <rect id="rect2186" fill-rule="evenodd" rx="6.4286" ry="6.5859" height="78.571" width="11.429" y="321.65" x="395.71" fill="url(#radialGradient2458)"/>
      <path id="path2198" d="m187.73 292.54l120.51-65.13c3.71-2.22 18.73-6.09 28.66-4.92l179.32 16.35c9.93 1.17 14.94 3.9 11.23 6.11l-122.53 71.2c-3.7 2.21-6.47 1.77-16.41 0.6l-189.54-18.09c-9.93-1.18-14.94-3.9-11.24-6.12z" sodipodi:nodetypes="ccccccccc" fill="url(#linearGradient2460)" fill-rule="evenodd"/>
      <rect id="rect2150" ry="16.427" fill-rule="evenodd" rx="4.932" transform="matrix(.86265 -.50580 .49336 .86983 0 0)" height="12.799" width="151.77" y="473.58" x="189.89" fill="url(#linearGradient2462)"/>
      <rect id="rect2176" ry="12.142" fill-rule="evenodd" rx="7.4886" transform="matrix(.99524 .097429 -.076672 .99706 0 0)" height="11.879" width="218.68" y="274.97" x="207.27" fill="url(#linearGradient2464)"/>
      <path id="path2269" d="m213.8 287.32l99.48-54.19c3.06-1.84 24.55-5.06 32.75-4.09l148.09 13.46c8.21 0.96 12.35 3.22 9.29 5.07l-96.1 54.17c-3.05 1.84-10.39 6.53-18.6 5.56l-165.63-14.91c-8.2-0.97-12.34-3.23-9.28-5.07z" sodipodi:nodetypes="ccccccccc" fill="url(#radialGradient2466)" fill-rule="evenodd"/>
      <path id="path2223" sodipodi:rx="28.928572" sodipodi:ry="8.5714283" sodipodi:type="arc" d="m490.71 251.65a28.929 8.5714 0 1 1 -57.85 0 28.929 8.5714 0 1 1 57.85 0z" fill-rule="evenodd" transform="matrix(1.0586 0 0 1.1486 -240.36 -4.7826)" stroke="url(#linearGradient2470)" sodipodi:cy="251.64790" sodipodi:cx="461.78571" stroke-width="3.9903" fill="url(#radialGradient2468)"/>
      <path id="path2305" d="m286.85 250.52l9.11 2.46 8.86 3.47-12.26-1.65 1.32 13.23-2.8-8.76-4.23-8.75z" fill-opacity=".69714" sodipodi:nodetypes="ccccccc" fill-rule="evenodd" fill="#fff"/>
      <path id="path2310" d="m320.87 302.74l-1.73-10.32-3.86-2.95 8.37 6.75 14.26-3.08-9.6 2.39-7.44 7.21z" fill-opacity=".69714" sodipodi:nodetypes="ccccccc" fill-rule="evenodd" fill="#fff"/>
      <path id="path2312" d="m453.47 279.13l-8.11-3.22-0.79 0.02 1.86 2.82-11.69 5.82 8.51-2.84 10.22-2.6z" fill-opacity=".69714" sodipodi:nodetypes="ccccccc" fill-rule="evenodd" fill="#fff"/>
      <path id="path2314" d="m401.64 236.34l-8.26 3.86-7.17 6.25 10.99-5.67 3.21 12.9-0.31-9.19 1.54-8.15z" fill-opacity=".43429" sodipodi:nodetypes="ccccccc" fill-rule="evenodd" fill="#fff"/>
      <path id="rect1301" d="m341.95 72.096c8.87-1.017 18.93-2.873 30.19-1.959 10.85 0.913 24.49 1.44 26.2 5.443 1.66 3.671 0.41 12.726 0.67 17.745l-2.27 172.16c-0.07 5.41-0.6 10.84-3.67 13.46-3.39 2.89-5.39 5.04-10.23 6.74-7.23 2.14-13.22 2.37-21.94 1.12-7.89-0.73-13.01-2.79-16.96-5.44-3.05-2.51-8.16-6.09-8.02-16.91l2.27-179.5c0.15-10.808 0.72-12.905 3.76-12.854z" sodipodi:nodetypes="cccccscccccc" fill="url(#linearGradient2472)"/>
    </g>
  </g>
  <metadata>
    <rdf:RDF>
      <cc:Work>
        <dc:format>image/svg+xml</dc:format>
        <dc:type rdf:resource="http://purl.org/dc/dcmitype/StillImage"/>
        <cc:license rdf:resource="http://creativecommons.org/licenses/publicdomain/"/>
        <dc:publisher>
          <cc:Agent rdf:about="http://openclipart.org/">
            <dc:title>Openclipart</dc:title>
          </cc:Agent>
        </dc:publisher>
        <dc:title>Old Joystick</dc:title>
        <dc:date>2006-12-12T14:38:26</dc:date>
        <dc:description>This is an old Atari 2600 Joystick</dc:description>
        <dc:source>http://openclipart.org/detail/2011/old-joystick-by-gatuus</dc:source>
        <dc:creator>
          <cc:Agent>
            <dc:title>gatuus</dc:title>
          </cc:Agent>
        </dc:creator>
        <dc:subject>
          <rdf:Bag>
            <rdf:li>clip art</rdf:li>
            <rdf:li>clipart</rdf:li>
            <rdf:li>game</rdf:li>
            <rdf:li>handle</rdf:li>
            <rdf:li>hardware</rdf:li>
            <rdf:li>image</rdf:li>
            <rdf:li>media</rdf:li>
            <rdf:li>play</rdf:li>
            <rdf:li>png</rdf:li>
            <rdf:li>public domain</rdf:li>
            <rdf:li>svg</rdf:li>
            <rdf:li>toy</rdf:li>
            <rdf:li>video game</rdf:li>
          </rdf:Bag>
        </dc:subject>
      </cc:Work>
      <cc:License rdf:about="http://creativecommons.org/licenses/publicdomain/">
        <cc:permits rdf:resource="http://creativecommons.org/ns#Reproduction"/>
        <cc:permits rdf:resource="http://creativecommons.org/ns#Distribution"/>
        <cc:permits rdf:resource="http://creativecommons.org/ns#DerivativeWorks"/>
      </cc:License>
    </rdf:RDF>
  </metadata>
</svg>
